<svg width="43" height="33" viewBox="0 0 43 33" fill="none" xmlns="http://www.w3.org/2000/svg">
<path d="M43 29.2914V5.7344C43 5.52493 42.8695 5.32705 42.6488 5.20266C42.4282 5.07827 42.1444 5.04153 41.8817 5.10405L30.9696 7.69958C31.0726 7.29916 31.1274 6.94919 31.1274 6.65222C31.1274 2.98418 27.2285 0 22.4362 0C18.2329 0 14.6669 2.29792 13.9079 5.39924L0.792784 8.15332C0.418054 8.2326 0.158691 8.49299 0.158691 8.79012V32.34C0.158691 32.5456 0.284165 32.7396 0.49805 32.8646C0.649633 32.9536 0.834045 33 1.02099 33C1.09678 33 1.17341 32.9923 1.24835 32.9768L15.5769 29.9771L29.0483 32.9736C29.1274 32.9916 29.2083 33 29.2891 33C29.375 33 29.4609 32.9903 29.5443 32.9704L29.56 32.9666L42.3929 29.9217C42.7541 29.836 43 29.5808 43 29.2914ZM14.721 28.7873L1.88329 31.475V9.2935L13.7483 6.80174C13.7996 7.72619 14.3187 9.00156 14.721 9.87938V28.7873ZM28.4268 31.4609L16.4456 28.7957V13.1568C17.0769 14.2543 17.9513 15.6873 18.8699 17.1059C20.3764 19.4513 21.6665 21.2631 21.6791 21.2811C21.8307 21.4925 22.1204 21.6247 22.4362 21.6247C22.752 21.6247 23.0416 21.4925 23.1932 21.2811C23.2058 21.2631 24.4959 19.4513 26.0016 17.1078C26.9568 15.6309 27.865 14.133 28.4268 13.1562V31.4609ZM24.4547 16.5232C23.6715 17.7427 22.9482 18.8158 22.4362 19.5615C21.9242 18.8152 21.2 17.742 20.416 16.5213C19.0317 14.3835 15.0894 8.37264 15.5235 6.00252C15.9386 3.33288 18.9103 1.32 22.4362 1.32C26.2778 1.32 29.4028 3.71185 29.4028 6.65221C29.4028 8.75128 25.6817 14.6277 24.4547 16.5232ZM41.2754 28.8047L30.1514 31.4441V9.8813C30.2583 9.64991 30.356 9.42369 30.447 9.20648L41.2754 6.63093V28.8047Z" fill="#34A853"/>
<path d="M22.4362 3.10767C20.0253 3.10767 18.0203 4.6062 17.9672 6.44763C17.9672 6.45278 17.9672 6.52239 17.9672 6.52755C17.9672 8.41731 19.9722 9.95452 22.4362 9.95452C24.0084 9.95452 25.4753 9.3145 26.2534 8.29807C26.6795 7.77149 26.9043 7.15918 26.9043 6.52754C26.9043 4.64165 24.9001 3.10767 22.4362 3.10767ZM24.7755 7.61681C24.2879 8.25425 23.4138 8.63452 22.4362 8.63452C20.9229 8.63452 19.6918 7.68964 19.6918 6.47728C19.7238 5.34677 20.9558 4.42767 22.4362 4.42767C23.9486 4.42767 25.1797 5.36997 25.1797 6.52755C25.1797 6.91362 25.0441 7.28551 24.7755 7.61681Z" fill="#34A853"/>
</svg>
