<svg width="44" height="44" viewBox="0 0 44 44" fill="none" xmlns="http://www.w3.org/2000/svg">
<g clip-path="url(#clip0_219_56)">
<path d="M41.965 15.7666L26.7117 11.6049C24.2 10.9232 21.5225 11.2316 19.2317 12.4666L12.5217 16.1332L2.75 17.9666C2.02382 17.9666 1.32711 18.2538 0.81191 18.7655C0.296708 19.2773 0.0048412 19.9721 0 20.6982L0 26.1982C0 26.9276 0.289731 27.6271 0.805456 28.1428C1.32118 28.6585 2.02065 28.9482 2.75 28.9482H4.58333C4.76352 30.0116 5.31435 30.9767 6.1382 31.6727C6.96204 32.3687 8.00569 32.7505 9.08417 32.7505C10.1626 32.7505 11.2063 32.3687 12.0301 31.6727C12.854 30.9767 13.4048 30.0116 13.585 28.9482H30.25C30.4302 30.0116 30.981 30.9767 31.8049 31.6727C32.6287 32.3687 33.6724 32.7505 34.7508 32.7505C35.8293 32.7505 36.873 32.3687 37.6968 31.6727C38.5206 30.9767 39.0715 30.0116 39.2517 28.9482H41.085C41.8143 28.9482 42.5138 28.6585 43.0295 28.1428C43.5453 27.6271 43.835 26.9276 43.835 26.1982V18.3332C43.827 17.7646 43.6428 17.2124 43.3079 16.7527C42.973 16.293 42.5038 15.9485 41.965 15.7666ZM33 15.2349V16.1149H31.7167L31.0017 14.6666L33 15.2349ZM20.1667 14.0982C21.9303 13.1571 23.9743 12.8837 25.9233 13.3282H26.29H26.6017L28.6917 13.8966L29.7183 15.9682H16.5L20.1667 14.0982ZM9.16667 30.9099C8.62277 30.9099 8.09108 30.7486 7.63885 30.4464C7.18661 30.1443 6.83414 29.7148 6.626 29.2123C6.41786 28.7098 6.3634 28.1569 6.46951 27.6234C6.57562 27.09 6.83753 26.6 7.22212 26.2154C7.60672 25.8308 8.09672 25.5689 8.63017 25.4627C9.16362 25.3566 9.71655 25.4111 10.219 25.6192C10.7215 25.8274 11.151 26.1798 11.4532 26.6321C11.7554 27.0843 11.9167 27.616 11.9167 28.1599C11.9167 28.8892 11.6269 29.5887 11.1112 30.1044C10.5955 30.6202 9.89601 30.9099 9.16667 30.9099ZM34.8333 30.9099C34.2894 30.9099 33.7578 30.7486 33.3055 30.4464C32.8533 30.1443 32.5008 29.7148 32.2927 29.2123C32.0845 28.7098 32.0301 28.1569 32.1362 27.6234C32.2423 27.09 32.5042 26.6 32.8888 26.2154C33.2734 25.8308 33.7634 25.5689 34.2968 25.4627C34.8303 25.3566 35.3832 25.4111 35.8857 25.6192C36.3882 25.8274 36.8177 26.1798 37.1199 26.6321C37.422 27.0843 37.5833 27.616 37.5833 28.1599C37.5833 28.8892 37.2936 29.5887 36.7779 30.1044C36.2621 30.6202 35.5627 30.9099 34.8333 30.9099ZM42.1667 21.6149H41.25C41.0069 21.6149 40.7737 21.7115 40.6018 21.8834C40.4299 22.0553 40.3333 22.2885 40.3333 22.5316C40.3333 22.7747 40.4299 23.0078 40.6018 23.1797C40.7737 23.3517 41.0069 23.4482 41.25 23.4482H42.1667V26.1982C42.1667 26.4413 42.0701 26.6745 41.8982 26.8464C41.7263 27.0183 41.4931 27.1149 41.25 27.1149H39.2883C39.0544 26.1112 38.4877 25.2163 37.6805 24.5756C36.8733 23.9349 35.8731 23.5861 34.8425 23.5861C33.8119 23.5861 32.8117 23.9349 32.0045 24.5756C31.1973 25.2163 30.6306 26.1112 30.3967 27.1149H13.6217C13.3877 26.1112 12.8211 25.2163 12.0139 24.5756C11.2067 23.9349 10.2064 23.5861 9.17583 23.5861C8.14526 23.5861 7.14501 23.9349 6.33781 24.5756C5.5306 25.2163 4.96394 26.1112 4.73 27.1149H2.75C2.50688 27.1149 2.27373 27.0183 2.10182 26.8464C1.92991 26.6745 1.83333 26.4413 1.83333 26.1982V23.4482H2.75C2.99311 23.4482 3.22627 23.3517 3.39818 23.1797C3.57009 23.0078 3.66667 22.7747 3.66667 22.5316C3.66667 22.2885 3.57009 22.0553 3.39818 21.8834C3.22627 21.7115 2.99311 21.6149 2.75 21.6149H1.83333V20.6982C1.84016 20.5648 1.87392 20.4342 1.93258 20.3142C1.99123 20.1942 2.07356 20.0872 2.17462 19.9999C2.27568 19.9125 2.39338 19.8465 2.52061 19.8059C2.64785 19.7652 2.78201 19.7507 2.915 19.7632L12.8333 17.9482H33.9167C34.1598 17.9482 34.3929 17.8517 34.5648 17.6797C34.7368 17.5078 34.8333 17.2747 34.8333 17.0316V15.7299L41.4883 17.5632C41.6653 17.6093 41.8245 17.7072 41.9453 17.8444C42.0662 17.9816 42.1433 18.1519 42.1667 18.3332V21.6149ZM28.4167 23.4482H15.5833C15.3402 23.4482 15.1071 23.5448 14.9352 23.7167C14.7632 23.8886 14.6667 24.1218 14.6667 24.3649C14.6667 24.608 14.7632 24.8412 14.9352 25.0131C15.1071 25.185 15.3402 25.2816 15.5833 25.2816H28.4167C28.6598 25.2816 28.8929 25.185 29.0648 25.0131C29.2368 24.8412 29.3333 24.608 29.3333 24.3649C29.3333 24.1218 29.2368 23.8886 29.0648 23.7167C28.8929 23.5448 28.6598 23.4482 28.4167 23.4482Z" fill="#34A853"/>
</g>
<defs>
<clipPath id="clip0_219_56">
<rect width="44" height="44" fill="white"/>
</clipPath>
</defs>
</svg>
