<svg width="23" height="23" viewBox="0 0 23 23" fill="none" xmlns="http://www.w3.org/2000/svg">
<path fill-rule="evenodd" clip-rule="evenodd" d="M5.62349 2.80005L5.77396 1.84385C5.83346 1.46235 5.57449 1.1036 5.19299 1.04305C4.81149 0.9825 4.45098 1.24325 4.39148 1.6251L3.95398 4.39045C3.89098 4.7723 4.15353 5.13105 4.53503 5.19125L7.3 5.62945C7.6815 5.69 8.04201 5.42925 8.10151 5.0474C8.16101 4.6659 7.90196 4.30715 7.52046 4.2466L6.27803 4.0499C7.75503 3.0104 9.5575 2.4 11.5 2.4C16.5225 2.4 20.6 6.4775 20.6 11.5C20.6 16.5225 16.5225 20.6 11.5 20.6C6.4775 20.6 2.4 16.5225 2.4 11.5C2.4 11.1136 2.085 10.8 1.7 10.8C1.315 10.8 1 11.1136 1 11.5C1 17.2949 5.704 22 11.5 22C17.296 22 22 17.2949 22 11.5C22 5.70505 17.296 1 11.5 1C9.323 1 7.29999 1.66395 5.62349 2.80005ZM10.8 4.5V11.5C10.8 11.6855 10.8735 11.8637 11.0065 11.9949L14.5065 15.4949C14.7795 15.7683 15.2205 15.7683 15.4935 15.4949C15.77 15.2219 15.77 14.7781 15.4935 14.5051L12.2 11.2102V4.5C12.2 4.1136 11.885 3.8 11.5 3.8C11.115 3.8 10.8 4.1136 10.8 4.5Z" fill="white" stroke="white"/>
</svg>
