<svg width="23" height="23" viewBox="0 0 23 23" fill="none" xmlns="http://www.w3.org/2000/svg">
<path d="M1.01122 14.8158C1.0174 10.858 4.24885 7.63661 8.20665 7.6428C8.69426 7.64356 9.1478 7.74526 9.60303 7.83926L16.1963 1.26655C16.352 1.11133 16.563 1.02431 16.7828 1.02461L21.2038 1.03152C21.4237 1.03188 21.6344 1.11956 21.7896 1.27525C21.9448 1.43095 22.0318 1.64192 22.0315 1.86176L22.0246 6.28281C22.0242 6.50265 21.9365 6.71335 21.7808 6.86856C21.6251 7.02377 21.4142 7.11078 21.1943 7.11046L19.8128 7.1083L19.8097 9.04251C19.8094 9.26235 19.7217 9.47305 19.566 9.62826C19.4103 9.78347 19.1993 9.87048 18.9795 9.87016L17.0453 9.86714L17.0423 11.8013C17.0419 12.0212 16.9542 12.2319 16.7985 12.3871C16.6428 12.5423 16.4319 12.6293 16.212 12.629L14.9934 12.6271C15.2214 13.3299 15.3808 14.0622 15.3796 14.8382C15.3734 18.796 12.142 22.0174 8.18419 22.0112C4.2264 22.005 1.00503 18.7736 1.01122 14.8158ZM2.66911 14.8184C2.66433 17.8801 5.12507 20.3485 8.18679 20.3533C11.2485 20.3581 13.7169 17.8974 13.7217 14.8356C13.7232 13.8754 13.4818 12.978 13.0545 12.1923C12.9858 12.066 12.9512 11.9239 12.954 11.7801C12.9568 11.6364 12.9969 11.4958 13.0705 11.3722C13.1441 11.2486 13.2486 11.1463 13.3736 11.0753C13.4987 11.0044 13.6401 10.9671 13.7839 10.9673L15.3857 10.9698L15.3887 9.0356C15.3891 8.81576 15.4767 8.60506 15.6324 8.44985C15.7881 8.29464 15.9991 8.20763 16.2189 8.20795L18.1531 8.21097L18.1562 6.27676C18.1565 6.05692 18.2442 5.84622 18.3999 5.69101C18.5556 5.5358 18.7666 5.44879 18.9864 5.44911L20.368 5.45127L20.3723 2.68812L17.1234 2.68304L10.488 9.29778C10.384 9.4015 10.2543 9.47573 10.1122 9.51287C9.97009 9.55 9.82066 9.54872 9.67922 9.50915C9.2037 9.37624 8.71229 9.30148 8.20406 9.30069C5.14234 9.29591 2.6739 11.7566 2.66911 14.8184ZM5.43054 15.9279C5.43123 15.4882 5.60655 15.0668 5.91796 14.7564C6.22936 14.446 6.65132 14.272 7.09102 14.2726C7.53072 14.2733 7.95214 14.4487 8.26257 14.7601C8.573 15.0715 8.74701 15.4934 8.74632 15.9331C8.74564 16.3728 8.57031 16.7942 8.25891 17.1047C7.94751 17.4151 7.52554 17.5891 7.08584 17.5884C6.64614 17.5877 6.22472 17.4124 5.91429 17.101C5.60386 16.7896 5.42985 16.3676 5.43054 15.9279Z" fill="black" stroke="black"/>
</svg>
