<svg width="23" height="29" viewBox="0 0 23 29" fill="none" xmlns="http://www.w3.org/2000/svg">
<path d="M11.0833 12.6667C12.3359 12.6667 13.5604 12.2952 14.6019 11.5993C15.6435 10.9034 16.4552 9.91426 16.9346 8.757C17.4139 7.59973 17.5393 6.32631 17.295 5.09776C17.0506 3.86922 16.4474 2.74073 15.5617 1.85499C14.6759 0.96926 13.5475 0.366069 12.3189 0.121696C11.0904 -0.122677 9.81694 0.00274411 8.65967 0.482099C7.50241 0.961454 6.51327 1.77321 5.81736 2.81472C5.12144 3.85624 4.75 5.08072 4.75 6.33334C4.75 8.01304 5.41726 9.62395 6.60499 10.8117C7.79272 11.9994 9.40363 12.6667 11.0833 12.6667ZM11.0833 3.16667C11.7096 3.16667 12.3219 3.35239 12.8426 3.70035C13.3634 4.04831 13.7693 4.54287 14.009 5.1215C14.2486 5.70014 14.3113 6.33685 14.1892 6.95112C14.067 7.5654 13.7654 8.12964 13.3225 8.57251C12.8796 9.01537 12.3154 9.31697 11.7011 9.43916C11.0868 9.56134 10.4501 9.49863 9.8715 9.25896C9.29287 9.01928 8.7983 8.6134 8.45035 8.09264C8.10239 7.57189 7.91667 6.95964 7.91667 6.33334C7.91667 5.49348 8.2503 4.68803 8.84416 4.09416C9.43803 3.5003 10.2435 3.16667 11.0833 3.16667ZM11.0833 15.8333C8.14385 15.8333 5.32476 17.001 3.24623 19.0796C1.1677 21.1581 0 23.9772 0 26.9167C0 27.3366 0.166815 27.7393 0.463748 28.0363C0.76068 28.3332 1.16341 28.5 1.58333 28.5C2.00326 28.5 2.40599 28.3332 2.70292 28.0363C2.99985 27.7393 3.16667 27.3366 3.16667 26.9167C3.16667 24.817 4.00074 22.8034 5.4854 21.3187C6.97007 19.8341 8.9837 19 11.0833 19C13.183 19 15.1966 19.8341 16.6813 21.3187C18.1659 22.8034 19 24.817 19 26.9167C19 27.3366 19.1668 27.7393 19.4637 28.0363C19.7607 28.3332 20.1634 28.5 20.5833 28.5C21.0033 28.5 21.406 28.3332 21.7029 28.0363C21.9999 27.7393 22.1667 27.3366 22.1667 26.9167C22.1667 23.9772 20.999 21.1581 18.9204 19.0796C16.8419 17.001 14.0228 15.8333 11.0833 15.8333Z" fill="#34A853"/>
</svg>
