<svg width="24" height="24" viewBox="0 0 24 24" fill="none" xmlns="http://www.w3.org/2000/svg">
<path d="M23.5557 9.75C23.4148 9.61042 23.2474 9.49969 23.0631 9.42414C22.8788 9.34858 22.6813 9.30969 22.4818 9.30969C22.2823 9.30969 22.0848 9.34858 21.9005 9.42414C21.7162 9.49969 21.5488 9.61042 21.4079 9.75L20.6492 10.5L18.2077 12.9135V5.625C18.2056 5.6088 18.2023 5.59276 18.1979 5.577C18.1959 5.56131 18.1929 5.54577 18.1888 5.5305C18.174 5.46671 18.1423 5.40795 18.097 5.36025L12.7862 0.11025C12.7382 0.0652812 12.679 0.0337053 12.6147 0.01875C12.5995 0.0147036 12.584 0.0116964 12.5684 0.00975C12.552 0.00535593 12.5352 0.00209806 12.5183 0L1.89672 0C1.39368 0 0.91124 0.197544 0.555536 0.549175C0.199832 0.900805 0 1.37772 0 1.875V22.125C0 22.6223 0.199832 23.0992 0.555536 23.4508C0.91124 23.8025 1.39368 24 1.89672 24H16.3118C16.5609 24 16.8075 23.9515 17.0376 23.8573C17.2677 23.763 17.4768 23.6249 17.653 23.4508C17.8291 23.2767 17.9688 23.07 18.0641 22.8425C18.1594 22.615 18.2085 22.3712 18.2085 22.125V17.157L22.7955 12.6225L23.5542 11.8725C23.6954 11.7333 23.8074 11.5679 23.8839 11.3859C23.9604 11.2038 23.9999 11.0087 24 10.8116C24.0001 10.6144 23.961 10.4192 23.8847 10.2371C23.8085 10.0549 23.6967 9.88941 23.5557 9.75ZM12.8977 1.28025L16.9134 5.25H14.0357C13.7339 5.25 13.4444 5.13147 13.231 4.9205C13.0176 4.70952 12.8977 4.42337 12.8977 4.125V1.28025ZM12.5312 5.25H3.41409C3.31349 5.25 3.217 5.21049 3.14586 5.14016C3.07472 5.06984 3.03475 4.97446 3.03475 4.875V3.375C3.03475 3.27554 3.07472 3.18016 3.14586 3.10984C3.217 3.03951 3.31349 3 3.41409 3H12.139V4.125C12.1414 4.53238 12.2792 4.92768 12.5312 5.25ZM17.4528 22.125C17.4528 22.4234 17.3329 22.7095 17.1195 22.9205C16.9061 23.1315 16.6166 23.25 16.3148 23.25H1.89975C1.59793 23.25 1.30847 23.1315 1.09504 22.9205C0.881622 22.7095 0.761722 22.4234 0.761722 22.125V1.875C0.761721 1.57715 0.881204 1.29146 1.09397 1.08056C1.30674 0.869671 1.59542 0.750794 1.89672 0.75H12.139V2.25H3.41409C3.11227 2.25 2.82281 2.36853 2.60938 2.5795C2.39596 2.79048 2.27606 3.07663 2.27606 3.375V4.875C2.27606 5.17337 2.39596 5.45952 2.60938 5.6705C2.82281 5.88147 3.11227 6 3.41409 6H17.4498V13.6642L13.0942 17.97C13.0771 17.9903 13.0623 18.0125 13.0502 18.036C13.0426 18.048 13.0297 18.0548 13.0236 18.0675L11.9508 20.1885C11.9203 20.2524 11.9089 20.3235 11.918 20.3936C11.9272 20.4637 11.9565 20.5297 12.0024 20.5837L11.5305 21.0548C11.4917 21.0889 11.4603 21.1305 11.4384 21.1771C11.4165 21.2236 11.4046 21.2742 11.4032 21.3255C11.4019 21.3768 11.4112 21.4279 11.4307 21.4755C11.4501 21.5232 11.4793 21.5663 11.5163 21.6024C11.5533 21.6384 11.5974 21.6665 11.6459 21.685C11.6944 21.7035 11.7462 21.7119 11.7981 21.7098C11.85 21.7077 11.9009 21.6951 11.9477 21.6727C11.9945 21.6503 12.0361 21.6187 12.07 21.5798L12.529 21.1208L12.5578 21.1493C12.6141 21.2049 12.6866 21.2417 12.7652 21.2543C12.8437 21.267 12.9243 21.2549 12.9956 21.2197L15.1411 20.1585C15.154 20.1525 15.1609 20.1397 15.173 20.1322C15.1968 20.1202 15.2192 20.1057 15.2398 20.0887L17.4498 17.9047L17.4528 22.125ZM13.4697 18.8685L14.3346 19.7235L12.9045 20.4307L12.8021 20.3288V20.3243H12.7975L12.7581 20.2853L13.4697 18.8685ZM17.5667 16.7355L14.978 19.2938L13.8969 18.2355L20.9163 11.2965L21.989 12.357L17.5667 16.7355ZM23.0239 11.3407L22.5323 11.8267L21.4587 10.7655L21.9503 10.2795C22.0208 10.2098 22.1045 10.1545 22.1966 10.1168C22.2887 10.0791 22.3874 10.0597 22.4871 10.0597C22.5868 10.0597 22.6855 10.0791 22.7776 10.1168C22.8697 10.1545 22.9534 10.2098 23.0239 10.2795C23.0944 10.3492 23.1503 10.4319 23.1884 10.523C23.2266 10.614 23.2462 10.7116 23.2462 10.8101C23.2462 10.9087 23.2266 11.0063 23.1884 11.0973C23.1503 11.1883 23.0944 11.2711 23.0239 11.3407ZM6.44884 12H15.5531C15.6537 12 15.7502 11.9605 15.8213 11.8902C15.8925 11.8198 15.9324 11.7245 15.9324 11.625C15.9324 11.5255 15.8925 11.4302 15.8213 11.3598C15.7502 11.2895 15.6537 11.25 15.5531 11.25H6.44884C6.34824 11.25 6.25175 11.2895 6.18061 11.3598C6.10947 11.4302 6.0695 11.5255 6.0695 11.625C6.0695 11.7245 6.10947 11.8198 6.18061 11.8902C6.25175 11.9605 6.34824 12 6.44884 12ZM6.44884 9.75H15.5531C15.6537 9.75 15.7502 9.71049 15.8213 9.64017C15.8925 9.56984 15.9324 9.47446 15.9324 9.375C15.9324 9.27554 15.8925 9.18016 15.8213 9.10983C15.7502 9.03951 15.6537 9 15.5531 9H6.44884C6.34824 9 6.25175 9.03951 6.18061 9.10983C6.10947 9.18016 6.0695 9.27554 6.0695 9.375C6.0695 9.47446 6.10947 9.56984 6.18061 9.64017C6.25175 9.71049 6.34824 9.75 6.44884 9.75ZM10.2423 20.9437C9.95008 20.9511 9.66335 20.8645 9.42518 20.697C9.0657 20.4663 8.6463 20.3436 8.21772 20.3436C7.78915 20.3436 7.36975 20.4663 7.01027 20.697C6.7721 20.8645 6.48537 20.9511 6.19317 20.9437C5.90206 20.9516 5.61621 20.8661 5.37834 20.7C5.02284 20.4623 4.60189 20.3387 4.17278 20.346C4.07217 20.346 3.97569 20.3855 3.90455 20.4558C3.8334 20.5262 3.79344 20.6215 3.79344 20.721C3.79344 20.8205 3.8334 20.9158 3.90455 20.9862C3.97569 21.0565 4.07217 21.096 4.17278 21.096C4.46449 21.0889 4.75066 21.1755 4.98837 21.3428C5.34387 21.5804 5.76482 21.704 6.19393 21.6968C6.6234 21.7041 7.04479 21.5808 7.401 21.3435C7.64231 21.1827 7.9267 21.0968 8.21772 21.0968C8.50874 21.0968 8.79313 21.1827 9.03445 21.3435C9.39065 21.5808 9.81205 21.7041 10.2415 21.6968C10.3421 21.6968 10.4386 21.6572 10.5098 21.5869C10.5809 21.5166 10.6209 21.4212 10.6209 21.3218C10.6209 21.2223 10.5809 21.1269 10.5098 21.0566C10.4386 20.9863 10.3421 20.9468 10.2415 20.9468L10.2423 20.9437ZM6.44884 8.25H15.5531C15.6537 8.25 15.7502 8.21049 15.8213 8.14017C15.8925 8.06984 15.9324 7.97446 15.9324 7.875C15.9324 7.77554 15.8925 7.68016 15.8213 7.60983C15.7502 7.53951 15.6537 7.5 15.5531 7.5H6.44884C6.34824 7.5 6.25175 7.53951 6.18061 7.60983C6.10947 7.68016 6.0695 7.77554 6.0695 7.875C6.0695 7.97446 6.10947 8.06984 6.18061 8.14017C6.25175 8.21049 6.34824 8.25 6.44884 8.25ZM6.44884 13.5H15.5531C15.6537 13.5 15.7502 13.4605 15.8213 13.3902C15.8925 13.3198 15.9324 13.2245 15.9324 13.125C15.9324 13.0255 15.8925 12.9302 15.8213 12.8598C15.7502 12.7895 15.6537 12.75 15.5531 12.75H6.44884C6.34824 12.75 6.25175 12.7895 6.18061 12.8598C6.10947 12.9302 6.0695 13.0255 6.0695 13.125C6.0695 13.2245 6.10947 13.3198 6.18061 13.3902C6.25175 13.4605 6.34824 13.5 6.44884 13.5ZM3.41409 13.5C3.63918 13.5 3.8592 13.434 4.04635 13.3104C4.2335 13.1868 4.37936 13.0111 4.4655 12.8055C4.55163 12.6 4.57417 12.3738 4.53026 12.1555C4.48635 11.9373 4.37796 11.7368 4.2188 11.5795C4.05965 11.4222 3.85687 11.315 3.63611 11.2716C3.41536 11.2282 3.18654 11.2505 2.97859 11.3356C2.77064 11.4208 2.5929 11.565 2.46786 11.75C2.34281 11.935 2.27606 12.1525 2.27606 12.375C2.27606 12.6734 2.39596 12.9595 2.60938 13.1705C2.82281 13.3815 3.11227 13.5 3.41409 13.5ZM3.41409 12C3.48912 12 3.56246 12.022 3.62485 12.0632C3.68723 12.1044 3.73585 12.163 3.76456 12.2315C3.79327 12.3 3.80079 12.3754 3.78615 12.4482C3.77151 12.5209 3.73538 12.5877 3.68233 12.6402C3.62928 12.6926 3.56169 12.7283 3.4881 12.7428C3.41451 12.7573 3.33824 12.7498 3.26893 12.7215C3.19961 12.6931 3.14036 12.645 3.09868 12.5833C3.057 12.5217 3.03475 12.4492 3.03475 12.375C3.03475 12.2755 3.07472 12.1802 3.14586 12.1098C3.217 12.0395 3.31349 12 3.41409 12ZM4.55213 16.125C4.55213 15.9025 4.48538 15.685 4.36033 15.5C4.23528 15.315 4.05755 15.1708 3.8496 15.0856C3.64165 15.0005 3.41283 14.9782 3.19208 15.0216C2.97132 15.065 2.76854 15.1722 2.60938 15.3295C2.45023 15.4868 2.34184 15.6873 2.29793 15.9055C2.25402 16.1238 2.27656 16.35 2.36269 16.5555C2.44882 16.7611 2.59469 16.9368 2.78184 17.0604C2.96899 17.184 3.18901 17.25 3.41409 17.25C3.71592 17.25 4.00538 17.1315 4.2188 16.9205C4.43223 16.7095 4.55213 16.4234 4.55213 16.125ZM3.41409 16.5C3.33907 16.5 3.26572 16.478 3.20334 16.4368C3.14096 16.3956 3.09234 16.337 3.06363 16.2685C3.03491 16.2 3.0274 16.1246 3.04204 16.0518C3.05668 15.9791 3.09281 15.9123 3.14586 15.8598C3.19891 15.8074 3.2665 15.7717 3.34009 15.7572C3.41367 15.7427 3.48995 15.7502 3.55926 15.7785C3.62858 15.8069 3.68782 15.855 3.72951 15.9167C3.77119 15.9783 3.79344 16.0508 3.79344 16.125C3.79344 16.2245 3.75347 16.3198 3.68233 16.3902C3.61119 16.4605 3.5147 16.5 3.41409 16.5ZM6.44884 15.75H12.5183C12.619 15.75 12.7154 15.7105 12.7866 15.6402C12.8577 15.5698 12.8977 15.4745 12.8977 15.375C12.8977 15.2755 12.8577 15.1802 12.7866 15.1098C12.7154 15.0395 12.619 15 12.5183 15H6.44884C6.34824 15 6.25175 15.0395 6.18061 15.1098C6.10947 15.1802 6.0695 15.2755 6.0695 15.375C6.0695 15.4745 6.10947 15.5698 6.18061 15.6402C6.25175 15.7105 6.34824 15.75 6.44884 15.75ZM3.41409 9.75C3.63918 9.75 3.8592 9.68402 4.04635 9.5604C4.2335 9.43679 4.37936 9.26109 4.4655 9.05552C4.55163 8.84995 4.57417 8.62375 4.53026 8.40552C4.48635 8.18729 4.37796 7.98684 4.2188 7.8295C4.05965 7.67217 3.85687 7.56502 3.63611 7.52162C3.41536 7.47821 3.18654 7.50049 2.97859 7.58564C2.77064 7.67078 2.5929 7.81498 2.46786 7.99998C2.34281 8.18499 2.27606 8.4025 2.27606 8.625C2.27606 8.92337 2.39596 9.20952 2.60938 9.4205C2.82281 9.63147 3.11227 9.75 3.41409 9.75ZM3.41409 8.25C3.48912 8.25 3.56246 8.27199 3.62485 8.3132C3.68723 8.3544 3.73585 8.41297 3.76456 8.48149C3.79327 8.55002 3.80079 8.62542 3.78615 8.69816C3.77151 8.7709 3.73538 8.83772 3.68233 8.89017C3.62928 8.94261 3.56169 8.97832 3.4881 8.99279C3.41451 9.00726 3.33824 8.99984 3.26893 8.97145C3.19961 8.94307 3.14036 8.89501 3.09868 8.83334C3.057 8.77167 3.03475 8.69917 3.03475 8.625C3.03475 8.52554 3.07472 8.43016 3.14586 8.35983C3.217 8.28951 3.31349 8.25 3.41409 8.25ZM6.44884 17.25H12.5183C12.619 17.25 12.7154 17.2105 12.7866 17.1402C12.8577 17.0698 12.8977 16.9745 12.8977 16.875C12.8977 16.7755 12.8577 16.6802 12.7866 16.6098C12.7154 16.5395 12.619 16.5 12.5183 16.5H6.44884C6.34824 16.5 6.25175 16.5395 6.18061 16.6098C6.10947 16.6802 6.0695 16.7755 6.0695 16.875C6.0695 16.9745 6.10947 17.0698 6.18061 17.1402C6.25175 17.2105 6.34824 17.25 6.44884 17.25Z" fill="#FCFCFC"/>
</svg>
